:SAMPLES-PER-SECOND 30
:FULLY-SPECIFIED
:DEGREES
325
root  -3.04138 40.2385 0.0955224 -6.90012 -85.3026 -5.01065
RightUpLeg  1.52174 -18.1149 -5.96621
RightLeg  29.6285 -9.64251 -6.1146
RightFoot  -2.97843 -0.893623 11.9021
RightToes  -3.1126e-008 1.75238e-005 3.56266e-009
Spine  -8.30705 1.85718 -6.91089
Spine1  23.5698 3.55319 -3.17437
HEad  11.8479 -13.6903 11.163
LeftShoulder1  2.44799 -5.95726 -19.3837
LeftArm  -13.482 -30.7091 -70.0708
LeftForeArm  -16.0278 -42.8388 -11.3449
LeftHand  0.113354 -1.88072 -1.72609
RightShoulder  3.24885 8.16486 21.5566
RightArm  -17.0105 11.3686 46.1112
RightForeArm  -32.4237 58.4269 21.0682
RightHand  0.631185 2.47139 9.37473
LeftUpLeg  8.86754 6.44657 4.26297
LeftLeg  13.2592 10.0782 0.850884
LeftFoot  -9.25913 0.126452 -3.90265
LeftToes  4.78349e-008 1.46828e-008 1.33736e-009
326
root  -2.9792 40.0968 0.431748 -33.7077 -87.0231 21.3804
RightUpLeg  -0.785522 -16.828 -8.04678
RightLeg  33.804 -8.04169 -5.99451
RightFoot  -2.07551 -1.05478 12.7936
RightToes  -3.1126e-008 1.75238e-005 3.56266e-009
Spine  -9.20131 1.90767 -7.42448
Spine1  24.5852 3.86295 -4.16319
HEad  13.4588 -11.2683 10.4532
LeftShoulder1  2.36613 -5.7653 -19.0117
LeftArm  -17.7803 -34.552 -73.6293
LeftForeArm  -9.99222 -41.2204 -10.4153
LeftHand  -0.21316 -0.0113972 4.63693
RightShoulder  3.44921 8.69604 22.0155
RightArm  -21.0051 17.0607 50.2215
RightForeArm  -33.5362 55.6875 18.9673
RightHand  -0.15946 3.89275 -2.096
LeftUpLeg  9.51485 5.59674 2.05294
LeftLeg  13.4441 13.3577 1.00635
LeftFoot  -9.62463 0.109915 -3.47584
LeftToes  4.78349e-008 1.46828e-008 1.33736e-009
327
root  -2.98207 39.9882 0.744111 -78.456 -87.8757 65.6759
RightUpLeg  -2.37366 -15.6398 -9.49435
RightLeg  36.6701 -6.56895 -5.48442
RightFoot  -0.982204 -1.24536 13.597
RightToes  -3.1126e-008 1.75238e-005 3.56266e-009
Spine  -10.7545 2.20697 -7.23614
Spine1  26.7961 4.40836 -4.79077
HEad  13.6914 -9.2848 9.91892
LeftShoulder1  2.32202 -5.76322 -18.5026
LeftArm  -20.8512 -37.7648 -75.7465
LeftForeArm  1.10866 -38.9585 -8.98371
LeftHand  -0.281906 1.20108 7.62017
RightShoulder  3.49655 8.95146 21.8036
RightArm  -23.2041 21.0135 54.3231
RightForeArm  -30.2966 54.2968 17.8441
RightHand  -1.15626 4.94187 -13.3611
LeftUpLeg  10.2572 5.34409 0.658884
LeftLeg  13.5344 15.7708 1.12084
LeftFoot  -9.98792 0.0951486 -2.99164
LeftToes  4.78349e-008 1.46828e-008 1.33736e-009
328
root  -3.0093 39.9869 1.03137 -117.284 -88.1778 104.337
RightUpLeg  -3.02091 -14.7567 -9.76882
RightLeg  37.4289 -5.78072 -4.98938
RightFoot  0.340291 -1.47541 14.3819
RightToes  -3.1126e-008 1.75238e-005 3.56266e-009
Spine  -12.0336 2.46464 -6.46162
Spine1  28.3445 4.65152 -4.75769
HEad  13.1252 -9.30568 10.0799
LeftShoulder1  2.25692 -5.66356 -18.0313
LeftArm  -19.956 -38.097 -75.7862
LeftForeArm  10.8989 -39.0321 -8.40354
LeftHand  -0.364852 1.03186 9.71736
RightShoulder  3.46896 9.18276 21.0168
RightArm  -24.2283 21.4558 57.2004
RightForeArm  -21.8174 55.126 17.9408
RightHand  -1.74057 5.00907 -19.6416
LeftUpLeg  10.7859 5.34281 0.346972
LeftLeg  13.2022 17.1872 1.17039
LeftFoot  -10.1012 0.0897845 -2.69762
LeftToes  4.78349e-008 1.46828e-008 1.33736e-009
329
root  -3.0572 40.0508 1.25614 -105.354 -88.8426 92.5022
RightUpLeg  -2.60569 -14.9083 -9.48501
RightLeg  36.6032 -5.57455 -4.68408
RightFoot  1.07748 -1.61137 14.8027
RightToes  -3.1126e-008 1.75238e-005 3.56266e-009
Spine  -12.5029 2.27792 -6.29166
Spine1  28.5325 4.10428 -4.01191
HEad  12.2864 -9.19932 10.0633
LeftShoulder1  2.24425 -5.70998 -17.7462
LeftArm  -15.7645 -35.3069 -73.3539
LeftForeArm  18.6198 -41.8675 -8.80644
LeftHand  -0.369439 1.25724 10.2859
RightShoulder  3.38382 8.80776 21.1729
RightArm  -22.2914 19.056 57.4849
RightForeArm  -12.3924 57.6374 19.14
RightHand  -1.64479 4.86158 -18.7494
LeftUpLeg  10.8656 5.13209 0.487336
LeftLeg  12.8908 17.263 1.51759
LeftFoot  -10.0356 0.0894829 -2.57668
LeftToes  4.78349e-008 1.46828e-008 1.33736e-009
330
root  -3.12617 40.1914 1.43592 108.125 -89.8254 -120.533
RightUpLeg  -1.74192 -15.7359 -8.6196
RightLeg  34.5607 -5.66023 -4.42482
RightFoot  1.91095 -1.74174 15.0283
RightToes  -3.1126e-008 1.75238e-005 3.56266e-009
Spine  -12.4912 1.86255 -6.33303
Spine1  27.5304 3.09409 -2.51735
HEad  10.8911 -9.18518 10.2773
LeftShoulder1  2.20868 -5.51915 -17.8829
LeftArm  -10.3872 -30.7262 -69.4713
LeftForeArm  27.8869 -45.72 -9.518
LeftHand  -0.410199 0.117224 9.24248
RightShoulder  3.27351 8.20287 21.6885
RightArm  -18.1796 14.165 56.2863
RightForeArm  -2.16302 60.9894 21.1471
RightHand  -1.29657 4.57073 -15.2654
LeftUpLeg  10.7907 4.85824 1.18088
LeftLeg  12.0074 16.8515 1.73719
LeftFoot  -9.59631 0.0924521 -2.29189
LeftToes  4.78349e-008 1.46828e-008 1.33736e-009
331
root  -3.23746 40.318 1.57092 34.1154 -88.2661 -45.7112
RightUpLeg  -1.28338 -16.9691 -7.6712
RightLeg  32.6589 -5.74361 -4.19308
RightFoot  2.59046 -1.83629 15.0955
RightToes  -3.1126e-008 1.75238e-005 3.56266e-009
Spine  -12.6036 1.41894 -6.79603
Spine1  26.238 1.99909 -0.710211
HEad  9.07525 -9.26438 10.652
LeftShoulder1  2.15094 -5.04833 -18.6001
LeftArm  -4.64289 -24.3584 -65.2455
LeftForeArm  37.5224 -50.6568 -10.7803
LeftHand  -0.553531 -2.7989 8.00457
RightShoulder  3.20411 7.59345 22.6639
RightArm  -13.7849 7.88483 54.0252
RightForeArm  9.56993 64.3614 23.5434
RightHand  -0.758679 4.65926 -9.05997
LeftUpLeg  10.2817 4.71511 1.99271
LeftLeg  11.3211 16.1823 1.82957
LeftFoot  -9.29413 0.0901838 -1.92355
LeftToes  4.78349e-008 1.46828e-008 1.33736e-009
332
root  -3.33285 40.3908 1.69046 45.522 -87.494 -56.3378
RightUpLeg  -1.39117 -17.9279 -7.08481
RightLeg  31.6105 -5.72031 -4.02215
RightFoot  3.10955 -1.90276 15.0973
RightToes  -3.1126e-008 1.75238e-005 3.56266e-009
Spine  -12.0396 1.09249 -7.32053
Spine1  24.0786 1.2377 0.501947
HEad  7.17888 -9.31852 11.0858
LeftShoulder1  2.13071 -4.78118 -19.2186
LeftArm  0.469464 -16.4063 -60.726
LeftForeArm  44.7941 -55.7152 -12.6733
LeftHand  -0.646131 -4.25824 8.04451
RightShoulder  3.1526 7.0464 23.7276
RightArm  -9.56201 1.04146 51.7373
RightForeArm  18.4135 67.6624 26.9987
RightHand  -0.227058 4.76708 -2.86237
LeftUpLeg  9.67295 4.54297 2.34631
LeftLeg  10.9784 15.9936 1.97117
LeftFoot  -9.13111 0.0861025 -1.62094
LeftToes  4.78349e-008 1.46828e-008 1.33736e-009
333
root  -3.43421 40.4115 1.79298 51.8662 -87.3782 -62.1224
RightUpLeg  -1.81748 -18.1519 -6.92655
RightLeg  31.4539 -5.52221 -3.86917
RightFoot  3.384 -1.94773 15.1726
RightToes  -3.1126e-008 1.75238e-005 3.56266e-009
Spine  -12.0806 0.958858 -8.36379
Spine1  23.4354 0.644958 2.032
HEad  4.80445 -8.73468 11.0487
LeftShoulder1  2.20272 -4.67495 -20.5044
LeftArm  3.10774 -7.72285 -56.4555
LeftForeArm  53.6486 -60.0751 -14.4936
LeftHand  -0.574159 -6.51639 6.02594
RightShoulder  3.28003 7.08618 24.8828
RightArm  -6.76917 -5.18972 49.5795
RightForeArm  24.1323 70.028 30.447
RightHand  0.26539 3.8541 3.14454
LeftUpLeg  9.39983 4.36079 2.24442
LeftLeg  10.6221 16.3891 2.06254
LeftFoot  -9.08248 0.0833819 -1.46315
LeftToes  4.78349e-008 1.46828e-008 1.33736e-009
334
root  -3.52461 40.3793 1.90865 71.28 -87.8936 -81.1988
RightUpLeg  -2.59798 -17.4521 -7.05966
RightLeg  32.0534 -5.22477 -3.75562
RightFoot  3.51107 -1.98709 15.3471
RightToes  -3.1126e-008 1.75238e-005 3.56266e-009
Spine  -13.0354 1.06842 -8.58897
Spine1  24.572 0.746696 2.07736
HEad  1.84775 -8.27145 11.0507
LeftShoulder1  2.36462 -5.02332 -21.3731
LeftArm  1.73059 -0.172328 -54.4509
LeftForeArm  60.7537 -60.6018 -14.2876
LeftHand  -0.206758 -9.33165 1.98596
RightShoulder  3.50397 7.30261 26.3915
RightArm  -4.86975 -10.2194 48.1061
RightForeArm  28.1019 70.9159 31.6914
RightHand  0.484087 1.97699 7.36245
LeftUpLeg  9.30579 4.24407 1.747
LeftLeg  10.6066 17.5411 2.21949
LeftFoot  -9.25603 0.0813426 -1.41447
LeftToes  4.78349e-008 1.46828e-008 1.33736e-009
335
root  -3.57246 40.3232 2.02515 101.237 -87.8509 -111.237
RightUpLeg  -3.14387 -16.4884 -7.23691
RightLeg  32.8182 -5.07217 -3.75439
RightFoot  3.61648 -1.99385 15.2949
RightToes  -3.1126e-008 1.75238e-005 3.56266e-009
Spine  -13.392 1.27764 -8.06778
Spine1  25.7895 1.18193 1.14391
HEad  -0.964286 -7.32593 11.4602
LeftShoulder1  2.35413 -4.83543 -21.9002
LeftArm  -0.447986 3.57722 -54.4748
LeftForeArm  59.8207 -54.3333 -10.906
LeftHand  0.137568 -9.90451 -0.664783
RightShoulder  3.84995 7.87534 27.8574
RightArm  -3.83914 -14.2109 47.4052
RightForeArm  30.3912 70.0416 29.4492
RightHand  0.509307 1.3796 8.58845
LeftUpLeg  9.49445 4.24945 1.2846
LeftLeg  10.854 18.7553 2.43414
LeftFoot  -9.50368 0.0770574 -1.2476
LeftToes  4.78349e-008 1.46828e-008 1.33736e-009
